<?xml version="1.0" standalone="no"?>
<!DOCTYPE svg PUBLIC "-//W3C//DTD SVG 20010904//EN"
 "http://www.w3.org/TR/2001/REC-SVG-20010904/DTD/svg10.dtd">
<svg version="1.0" xmlns="http://www.w3.org/2000/svg"
 width="900.000000pt" height="900.000000pt" viewBox="0 0 900.000000 900.000000"
 preserveAspectRatio="xMidYMid meet">
<metadata>
Created by potrace 1.10, written by Peter Selinger 2001-2011
</metadata>
<g transform="translate(0.000000,900.000000) scale(0.100000,-0.100000)"
fill="#000000" stroke="none">
<path d="M4430 7269 c-30 -17 -68 -39 -85 -50 -16 -10 -40 -23 -52 -29 -32
-13 -29 -40 10 -91 18 -24 50 -72 72 -106 22 -34 47 -62 55 -63 9 0 26 22 40
53 13 28 44 94 68 145 24 50 42 100 40 109 -3 15 -72 63 -88 62 -3 0 -30 -14
-60 -30z"/>
<path d="M4610 7165 c-11 -25 -36 -80 -56 -123 -20 -42 -45 -96 -56 -119 -12
-27 -26 -43 -38 -43 -10 0 -23 -7 -31 -16 -10 -13 -10 -17 1 -24 8 -5 21 -5
31 0 13 8 23 0 47 -38 16 -26 54 -81 83 -122 51 -73 164 -238 241 -352 21 -32
45 -58 52 -58 8 0 24 19 36 43 12 23 35 66 51 95 16 28 43 77 59 107 17 30 44
80 60 110 17 30 43 79 59 108 77 140 77 138 55 154 -10 9 -32 22 -49 29 -16 8
-43 23 -60 34 -16 11 -39 24 -50 30 -11 6 -33 19 -50 30 -16 11 -37 23 -45 27
-8 4 -58 32 -110 63 -52 31 -102 59 -110 63 -8 4 -28 16 -45 26 -44 29 -54 26
-75 -24z"/>
<path d="M4112 7085 c-40 -25 -74 -45 -77 -45 -2 0 -21 -12 -42 -26 -21 -14
-47 -30 -58 -35 -11 -5 -33 -18 -50 -29 -16 -11 -39 -24 -50 -29 -11 -5 -72
-40 -135 -78 -63 -38 -122 -72 -130 -76 -8 -4 -28 -16 -45 -27 -16 -11 -39
-24 -50 -29 -18 -8 -237 -137 -275 -161 -8 -6 -25 -14 -37 -20 -21 -9 -23 -16
-23 -86 0 -74 1 -77 44 -132 24 -31 56 -70 71 -87 14 -16 38 -46 53 -65 15
-19 32 -40 37 -46 18 -21 82 -98 185 -224 56 -69 112 -138 125 -153 13 -15 47
-57 75 -93 31 -38 59 -64 71 -64 10 0 19 5 19 11 0 5 23 58 51 117 28 59 63
134 79 167 60 130 123 263 150 320 16 33 47 98 68 145 22 47 57 121 77 165 21
44 57 123 82 175 24 52 53 112 64 133 l21 38 -59 86 c-32 47 -74 109 -93 137
-20 29 -44 52 -55 53 -11 2 -53 -17 -93 -42z"/>
<path d="M5245 6800 c-14 -23 -30 -51 -36 -63 -5 -12 -19 -38 -30 -57 -12 -19
-43 -75 -69 -125 -27 -49 -60 -110 -73 -135 -14 -25 -44 -79 -65 -120 -32 -59
-45 -75 -63 -75 -25 0 -34 -17 -25 -42 6 -15 8 -15 23 -1 14 15 20 10 67 -60
72 -107 193 -285 247 -362 123 -178 148 -214 223 -325 44 -66 83 -122 86 -125
3 -3 18 -24 33 -48 16 -24 33 -42 40 -39 11 3 50 69 103 172 14 28 33 64 43
80 10 17 34 60 54 97 l37 67 0 441 0 440 -22 10 c-13 6 -30 14 -38 20 -38 24
-257 153 -275 161 -11 5 -33 18 -50 29 -16 11 -37 23 -45 27 -8 4 -40 22 -70
40 -30 18 -58 33 -62 33 -4 0 -19 -18 -33 -40z"/>
<path d="M4396 6708 c-24 -51 -58 -124 -76 -163 -33 -73 -76 -164 -140 -300
-21 -44 -55 -116 -75 -160 -21 -44 -54 -116 -75 -160 -21 -44 -61 -129 -90
-190 -89 -191 -95 -200 -118 -203 -13 -2 -22 -11 -22 -21 0 -27 11 -33 30 -16
15 14 20 11 48 -29 17 -24 44 -58 60 -77 61 -70 189 -226 227 -276 45 -59 67
-65 88 -25 7 15 28 53 45 85 30 54 46 82 123 225 18 31 44 80 59 107 15 28 41
76 59 108 17 31 45 82 61 112 17 30 44 81 61 113 18 31 47 86 67 122 66 124
95 175 108 195 16 22 19 72 5 77 -5 2 -42 53 -82 113 -40 61 -75 112 -78 115
-4 3 -24 32 -46 65 -22 33 -42 62 -45 65 -3 3 -36 51 -73 108 -38 56 -71 102
-73 102 -2 0 -23 -42 -48 -92z"/>
<path d="M3142 5593 l3 -666 30 -19 c17 -10 39 -22 50 -28 11 -5 27 -14 35
-20 114 -74 180 -103 180 -80 0 5 24 60 54 122 29 62 68 145 86 183 18 39 53
113 77 165 25 52 61 129 81 170 19 41 37 78 39 82 2 4 -4 15 -14 26 -10 10
-36 40 -58 67 -50 62 -72 89 -110 134 -17 20 -48 59 -70 86 -22 28 -42 52 -45
55 -3 3 -24 27 -45 55 -22 27 -48 59 -57 70 -146 176 -193 233 -202 248 -6 9
-17 17 -23 17 -11 0 -13 -134 -11 -667z"/>
<path d="M4860 6098 c-30 -58 -136 -253 -186 -343 -13 -22 -36 -65 -52 -95
-16 -30 -42 -80 -59 -110 -17 -30 -45 -82 -63 -115 -66 -122 -91 -166 -122
-222 -61 -113 -108 -206 -108 -217 0 -6 10 -23 23 -37 12 -15 56 -68 97 -119
41 -51 80 -97 85 -104 6 -6 42 -49 80 -96 181 -223 248 -300 262 -300 13 0
117 57 183 100 8 6 24 15 35 20 11 6 34 19 50 30 17 11 39 24 51 29 40 18 129
75 141 91 6 8 28 47 48 85 21 39 50 94 66 123 32 57 69 125 119 217 18 33 42
75 53 94 18 30 19 35 5 45 -9 7 -58 74 -110 151 -52 77 -115 169 -140 205 -57
82 -122 177 -213 310 -39 58 -96 141 -126 185 -61 91 -80 115 -90 115 -4 0
-17 -19 -29 -42z"/>
<path d="M5796 5458 c-14 -29 -52 -102 -85 -163 -51 -95 -63 -110 -91 -118
-26 -7 -30 -10 -20 -22 7 -8 20 -15 30 -15 15 0 75 -77 145 -187 13 -22 27
-32 40 -30 19 2 20 10 23 295 1 178 -1 292 -7 292 -5 0 -21 -24 -35 -52z"/>
<path d="M3796 5426 c-9 -14 -16 -28 -16 -31 0 -3 -23 -54 -51 -113 -28 -59
-63 -134 -79 -167 -88 -190 -124 -265 -146 -308 -13 -27 -24 -54 -24 -59 0
-12 25 -34 55 -48 11 -6 34 -19 50 -30 17 -11 37 -23 45 -27 8 -4 58 -33 111
-65 53 -32 101 -58 107 -58 5 0 15 -7 22 -15 25 -31 57 -18 83 33 14 26 36 67
50 92 14 25 39 70 55 100 41 78 90 168 119 217 l24 42 -83 103 c-46 57 -94
115 -105 128 -12 14 -58 70 -103 125 -45 55 -85 101 -90 103 -4 1 -15 -9 -24
-22z"/>
<path d="M5580 5058 c-11 -18 -34 -60 -51 -93 -17 -33 -45 -86 -63 -117 -96
-173 -98 -178 -77 -178 11 0 23 5 26 11 4 5 17 14 28 20 12 5 29 13 37 18 25
16 183 108 219 128 60 33 60 40 -10 143 -35 51 -69 95 -76 97 -7 3 -22 -10
-33 -29z"/>
<path d="M4220 5000 c-9 -16 -8 -22 5 -26 21 -9 37 8 29 29 -8 23 -21 21 -34
-3z"/>
<path d="M4210 4903 c-12 -21 -26 -46 -31 -56 -65 -121 -85 -159 -107 -197
-60 -107 -101 -193 -97 -201 5 -8 205 -129 235 -143 8 -3 29 -15 45 -26 17
-11 39 -24 50 -30 11 -6 29 -16 40 -23 95 -57 118 -67 146 -67 17 0 53 13 78
28 25 16 53 31 61 35 8 4 29 16 45 27 17 11 40 24 53 30 12 5 22 18 22 27 0
10 -10 29 -22 43 -13 14 -41 48 -63 75 -22 28 -48 59 -57 70 -14 17 -95 115
-157 190 -9 11 -34 42 -56 70 -61 76 -77 95 -112 134 -18 20 -33 39 -33 44 0
19 -20 3 -40 -30z"/>
<path d="M4195 3417 c-3 -7 -4 -138 -3 -292 l3 -280 45 0 45 0 0 102 c0 105 7
133 25 92 5 -13 14 -31 19 -39 4 -8 15 -31 23 -50 51 -118 44 -110 87 -110 48
0 57 11 38 47 -8 16 -21 44 -29 63 -8 19 -23 52 -32 74 -17 38 -17 39 14 105
18 36 38 78 47 94 18 35 10 47 -31 47 -40 0 -56 -17 -87 -90 -26 -61 -60 -113
-68 -104 -3 3 -4 75 -3 159 2 84 1 163 -3 174 -5 17 -15 21 -46 21 -23 0 -42
-5 -44 -13z"/>
<path d="M2841 3386 c-8 -9 -11 -91 -9 -277 l3 -264 35 0 35 0 5 175 c3 117 8
167 14 150 4 -14 14 -32 21 -40 7 -8 15 -33 19 -56 3 -23 13 -58 21 -78 15
-34 18 -37 53 -34 40 3 36 -3 66 125 13 58 32 86 41 62 2 -8 6 -79 7 -159 l3
-145 38 -3 37 -3 -2 278 -3 278 -35 3 c-59 5 -67 -8 -110 -178 -23 -94 -37
-135 -45 -135 -12 0 -54 124 -76 224 -14 67 -33 91 -73 91 -18 0 -39 -6 -45
-14z"/>
<path d="M4617 3393 c-4 -3 -7 -130 -7 -280 l0 -274 38 3 37 3 5 152 c5 139
10 176 26 161 6 -6 30 -97 42 -158 7 -32 11 -35 45 -38 35 -3 39 -1 53 34 9
21 18 54 21 73 3 20 12 47 19 61 7 14 15 34 18 44 15 44 21 -6 21 -162 l0
-167 29 -3 c16 -2 33 1 38 6 10 10 13 526 3 543 -4 5 -24 9 -45 9 -34 0 -42
-4 -56 -32 -10 -18 -21 -49 -25 -68 -26 -117 -61 -216 -75 -213 -5 1 -12 15
-15 30 -4 15 -16 62 -28 103 -12 41 -26 92 -30 112 -5 21 -14 44 -21 53 -12
15 -80 21 -93 8z"/>
<path d="M5577 3344 c-4 -4 -7 -18 -7 -32 0 -14 -11 -35 -25 -48 -14 -13 -25
-28 -25 -33 0 -6 11 -18 25 -27 25 -16 25 -17 25 -168 0 -146 1 -153 23 -174
18 -17 36 -22 75 -22 51 0 52 1 52 30 0 23 -7 33 -30 45 l-31 16 3 131 c3 132
3 132 28 138 38 9 40 54 3 72 -19 9 -30 23 -33 43 -4 26 -10 30 -40 33 -20 2
-39 0 -43 -4z"/>
<path d="M3423 3264 c-40 -9 -43 -25 -44 -208 -2 -224 -7 -216 136 -216 144 0
140 -6 140 216 0 213 4 207 -122 210 -49 1 -98 0 -110 -2z m139 -189 c4 -164
2 -170 -47 -170 l-40 0 -3 148 -3 147 45 0 45 0 3 -125z"/>
<path d="M3843 3264 c-44 -10 -48 -27 -48 -209 0 -220 -3 -215 136 -215 94 0
98 1 119 27 15 20 20 38 18 67 -3 39 -4 41 -41 44 -29 3 -38 -1 -43 -15 -12
-39 -22 -48 -55 -48 l-34 0 0 140 0 140 34 0 c33 0 43 -9 55 -48 5 -14 14 -18
43 -15 37 3 38 5 41 43 1 27 -4 48 -17 64 -17 22 -27 25 -102 27 -46 1 -94 0
-106 -2z"/>
<path d="M5205 3263 c-52 -14 -55 -24 -55 -208 0 -220 -5 -214 158 -213 l112
0 -2 211 -3 212 -45 -2 c-71 -4 -73 -4 -110 1 -19 2 -44 2 -55 -1z m113 -75
c14 -14 17 -245 3 -267 -5 -7 -21 -13 -36 -13 -15 0 -31 6 -36 13 -5 8 -9 68
-9 135 0 126 6 144 45 144 12 0 26 -5 33 -12z"/>
<path d="M5885 3263 c-41 -10 -45 -29 -45 -214 0 -216 -5 -209 137 -209 111 0
133 13 133 81 l0 40 -42 -3 c-36 -3 -43 -7 -48 -28 -5 -21 -11 -25 -45 -25
l-40 0 0 60 0 60 88 3 87 3 0 97 c0 53 -4 102 -8 109 -13 21 -62 33 -130 32
-37 -1 -76 -3 -87 -6z m133 -120 l-3 -58 -40 0 -40 0 -3 58 -3 57 46 0 46 0
-3 -57z"/>
<path d="M2467 2303 c-14 -13 -7 -33 11 -33 26 0 34 11 21 27 -13 14 -22 16
-32 6z"/>
<path d="M7536 2285 c-3 -9 -3 -21 0 -26 3 -5 2 -23 -1 -40 -7 -29 -8 -30 -47
-24 -30 5 -44 3 -59 -11 -17 -15 -19 -31 -19 -134 0 -89 3 -120 14 -129 9 -7
42 -11 88 -9 l73 3 0 190 c0 186 0 190 -21 193 -13 2 -24 -4 -28 -13z m-17
-134 c18 -12 27 -146 12 -183 -11 -30 -38 -37 -59 -16 -8 8 -12 46 -12 104 0
94 0 95 40 103 3 0 11 -3 19 -8z"/>
<path d="M1199 2268 c-5 -10 -8 -93 -7 -185 l3 -168 25 0 c24 0 25 3 26 55 0
31 3 61 7 67 4 6 29 13 56 15 75 7 81 16 81 118 0 103 -6 109 -113 113 -57 2
-70 -1 -78 -15z m115 -28 c24 -9 26 -14 26 -68 0 -66 -11 -82 -56 -82 -40 0
-46 21 -36 132 1 9 10 19 20 21 9 3 18 5 19 6 1 0 13 -3 27 -9z"/>
<path d="M5738 2276 l-33 -11 -3 -79 c-3 -90 7 -105 69 -106 51 0 73 -27 66
-81 -9 -65 -55 -81 -82 -29 -9 18 -23 30 -35 30 -28 0 -29 -65 -1 -80 31 -16
137 -13 155 6 20 19 22 141 3 165 -7 9 -34 19 -60 22 -27 4 -53 9 -58 13 -5 3
-9 28 -9 55 0 42 3 51 23 58 26 10 57 -3 57 -24 0 -17 30 -34 48 -28 18 7 15
58 -6 76 -23 21 -90 27 -134 13z"/>
<path d="M3495 2258 c-3 -13 -4 -95 -3 -183 l3 -160 25 0 25 0 0 180 c0 178 0
180 -22 183 -16 2 -24 -3 -28 -20z"/>
<path d="M2262 2213 c-22 -35 -23 -63 -2 -63 6 0 10 -40 10 -108 0 -117 6
-132 50 -132 38 0 42 9 20 38 -16 20 -20 40 -20 108 0 73 3 85 20 96 11 7 20
17 20 23 0 6 -9 18 -20 28 -11 9 -20 24 -20 32 0 28 -35 15 -58 -22z"/>
<path d="M1494 2187 c-2 -7 -3 -71 -2 -143 3 -125 4 -129 26 -132 22 -3 22 -1
22 98 0 109 9 140 41 140 21 0 35 22 24 39 -4 7 -12 7 -25 -1 -15 -10 -22 -10
-32 0 -16 16 -47 15 -54 -1z"/>
<path d="M1721 2183 c-20 -17 -22 -25 -19 -143 l3 -125 81 -3 c60 -2 83 1 85
10 2 7 3 73 1 146 -3 140 -7 148 -52 120 -15 -10 -22 -10 -32 0 -17 17 -42 15
-67 -5z m90 -33 c5 0 9 -45 9 -100 0 -99 0 -100 -26 -106 -37 -9 -44 7 -44
113 0 92 6 107 38 97 8 -2 18 -4 23 -4z"/>
<path d="M2003 2183 c-22 -15 -23 -22 -23 -134 0 -138 1 -139 100 -139 56 0
61 2 70 26 16 41 12 54 -15 54 -18 0 -28 -7 -35 -25 -10 -27 -38 -33 -58 -13
-8 8 -12 45 -12 100 0 76 2 89 19 98 27 14 29 13 56 -16 21 -22 27 -25 40 -14
20 17 19 32 -5 58 -25 27 -103 30 -137 5z"/>
<path d="M2458 2064 c-2 -75 0 -141 3 -146 4 -5 15 -8 25 -6 17 3 19 15 22
123 3 140 -1 165 -28 165 -18 0 -19 -9 -22 -136z"/>
<path d="M2640 2182 c-22 -18 -23 -25 -21 -132 1 -64 7 -120 13 -127 6 -8 34
-13 74 -13 69 0 94 15 94 56 0 34 -42 34 -58 -1 -12 -27 -40 -33 -60 -13 -8 8
-12 45 -12 100 0 76 2 89 19 98 27 14 29 13 56 -16 28 -30 55 -26 55 7 0 53
-110 81 -160 41z"/>
<path d="M2922 2184 c-22 -18 -23 -24 -20 -144 l3 -125 76 -3 c83 -3 106 9 94
48 -8 26 -42 26 -50 -1 -5 -16 -14 -19 -38 -17 -29 3 -32 6 -35 42 -4 48 6 56
76 56 l52 0 0 64 c0 76 -10 88 -83 94 -41 3 -57 0 -75 -14z m102 -46 c14 -23
-4 -72 -27 -76 -10 -2 -24 2 -32 8 -18 15 -20 76 -2 84 21 9 50 2 61 -16z"/>
<path d="M3664 2187 c-2 -7 -3 -71 -2 -143 3 -125 4 -129 26 -132 22 -3 22 -2
22 107 0 101 2 111 22 125 15 11 26 12 39 5 16 -8 19 -25 21 -122 l3 -112 25
0 25 0 3 117 c3 122 7 133 51 121 19 -5 21 -14 23 -122 3 -112 4 -116 26 -119
l23 -3 -3 132 c-3 133 -3 133 -30 148 -24 14 -30 14 -60 -1 -30 -14 -37 -14
-63 -1 -21 12 -36 13 -61 5 -18 -5 -38 -6 -45 -1 -20 13 -39 11 -45 -4z"/>
<path d="M4078 2019 c-2 -100 0 -185 3 -191 4 -5 15 -8 25 -6 14 2 20 13 22
45 l3 42 57 3 57 3 3 115 c1 63 0 125 -3 137 -7 29 -48 40 -81 22 -19 -10 -27
-10 -36 -1 -7 7 -20 12 -30 12 -16 0 -17 -16 -20 -181z m106 135 c13 -5 16
-24 16 -104 0 -59 -4 -101 -11 -105 -5 -4 -21 -4 -35 -1 -23 6 -24 9 -24 105
0 86 2 100 18 104 9 3 18 5 19 6 1 0 8 -2 17 -5z"/>
<path d="M4370 2180 c-6 -12 -9 -69 -8 -142 l3 -123 25 0 c25 0 25 1 27 95 4
126 8 140 38 140 20 0 25 5 25 25 0 29 -3 30 -30 13 -16 -10 -24 -10 -40 0
-26 16 -27 16 -40 -8z"/>
<path d="M4583 2183 c-22 -15 -23 -22 -23 -134 0 -137 1 -139 95 -139 94 0 95
2 95 136 0 108 -2 117 -22 135 -29 23 -113 25 -145 2z m98 -33 c17 -9 19 -22
19 -98 0 -93 -8 -112 -45 -112 -38 0 -45 19 -45 116 0 80 2 93 18 97 28 8 33
7 53 -3z"/>
<path d="M4840 2188 c0 -14 23 -141 40 -218 5 -25 9 -48 10 -52 0 -14 67 -8
79 6 6 8 18 47 26 87 8 41 18 94 23 118 12 52 7 71 -18 71 -15 0 -20 -10 -25
-47 -8 -65 -38 -164 -50 -166 -5 -1 -15 36 -21 83 -5 47 -16 95 -22 108 -14
23 -42 30 -42 10z"/>
<path d="M5142 2184 c-22 -18 -23 -24 -20 -144 l3 -125 76 -3 c83 -3 106 9 94
48 -8 26 -42 26 -50 -1 -5 -16 -14 -19 -38 -17 -29 3 -32 6 -35 42 -4 48 6 56
76 56 l52 0 0 64 c0 76 -10 88 -83 94 -41 3 -57 0 -75 -14z m102 -46 c14 -23
-4 -72 -27 -76 -10 -2 -24 2 -32 8 -18 15 -20 76 -2 84 21 9 50 2 61 -16z"/>
<path d="M6000 2061 c0 -160 -6 -151 101 -151 l70 0 -3 143 c-3 134 -4 142
-23 142 -19 0 -20 -9 -26 -125 -3 -69 -7 -126 -8 -128 0 -2 -13 -2 -28 0 l-28
3 -6 125 c-3 69 -7 126 -8 128 0 1 -10 2 -21 2 -19 0 -20 -7 -20 -139z"/>
<path d="M6311 2183 c-20 -17 -22 -25 -19 -143 l3 -125 60 -3 c32 -2 69 -1 81
2 26 7 39 55 19 75 -16 16 -33 7 -45 -25 -11 -28 -54 -33 -64 -8 -3 9 -6 55
-6 104 0 78 2 89 19 95 25 8 49 -3 56 -26 8 -24 45 -25 46 -1 4 53 -18 71 -82
72 -30 0 -55 -6 -68 -17z"/>
<path d="M6595 2188 c-32 -18 -35 -28 -35 -136 0 -137 3 -142 88 -142 75 0 92
10 92 52 0 23 -4 28 -25 28 -18 0 -26 -7 -31 -25 -9 -35 -51 -35 -64 1 -16 42
-12 160 6 178 22 23 40 20 62 -11 13 -17 25 -24 36 -20 24 9 20 53 -6 71 -26
18 -94 21 -123 4z"/>
<path d="M6863 2183 c-22 -15 -23 -22 -23 -134 0 -138 1 -139 99 -139 50 0 62
3 75 22 14 20 14 24 1 37 -13 13 -17 12 -39 -8 -16 -15 -33 -21 -52 -19 -26 3
-29 7 -32 44 -3 39 -1 42 29 48 17 3 49 6 70 6 l39 0 0 59 c0 52 -3 62 -26 80
-32 25 -108 28 -141 4z m98 -33 c29 -16 26 -67 -5 -81 -37 -17 -66 3 -66 46 0
32 7 39 43 44 5 0 17 -4 28 -9z"/>
<path d="M7152 2184 c-22 -18 -23 -24 -20 -144 l3 -125 76 -3 c83 -3 106 9 94
48 -8 26 -42 26 -50 -1 -5 -16 -14 -19 -38 -17 -29 3 -32 6 -35 42 -4 48 6 56
76 56 l52 0 0 64 c0 76 -10 88 -83 94 -41 3 -57 0 -75 -14z m97 -38 c31 -37
-9 -103 -46 -80 -22 14 -30 74 -11 85 20 13 44 11 57 -5z"/>
<path d="M3177 1956 c-10 -26 4 -47 27 -44 15 2 21 10 21 28 0 29 -38 41 -48
16z"/>
<path d="M5398 1958 c-9 -26 4 -48 29 -48 21 0 24 4 21 28 -2 19 -9 28 -24 30
-12 2 -24 -3 -26 -10z"/>
<path d="M7703 1959 c-18 -18 -3 -49 23 -49 20 0 24 5 24 30 0 22 -5 30 -18
30 -10 0 -23 -5 -29 -11z"/>
</g>
</svg>
